<svg width="149" height="44" viewBox="0 0 149 44" fill="none" xmlns="http://www.w3.org/2000/svg">
<path d="M2.96432 24.9639C1.32653 24.9639 0 23.6373 0 21.9995C0 20.3617 1.32653 19.0352 2.96432 19.0352C4.60211 19.0352 5.92864 20.3617 5.92864 21.9995C5.92864 23.6373 4.60211 24.9639 2.96432 24.9639ZM32.6075 19.0352C30.9698 19.0352 29.6432 20.3617 29.6432 21.9995C29.6432 23.6373 30.9698 24.9639 32.6075 24.9639C34.2453 24.9639 35.5719 23.6373 35.5719 21.9995C35.5719 20.3617 34.2453 19.0352 32.6075 19.0352ZM4.52652 29.2562C3.27261 30.3085 3.10809 32.179 4.16043 33.4329C5.21276 34.6868 7.08325 34.8513 8.33715 33.799C9.59106 32.7467 9.75558 30.8762 8.70325 29.6223C7.65091 28.3684 5.78043 28.2039 4.52652 29.2562ZM31.0453 14.7429C32.2993 13.6905 32.4638 11.8201 31.4114 10.5661C30.3591 9.31224 28.4886 9.14772 27.2347 10.2001C25.9808 11.2524 25.8163 13.1229 26.8686 14.3768C27.9209 15.6307 29.7914 15.7952 31.0453 14.7429ZM8.33715 10.2015C7.08325 9.1492 5.21276 9.31224 4.16043 10.5676C3.10809 11.823 3.27113 13.692 4.52652 14.7444C5.78191 15.7967 7.65091 15.6337 8.70325 14.3783C9.75558 13.1229 9.59254 11.2539 8.33715 10.2015ZM31.0453 29.2562C29.7914 28.2039 27.9209 28.3669 26.8686 29.6223C25.8163 30.8762 25.9793 32.7467 27.2347 33.799C28.4886 34.8513 30.3591 34.6883 31.4114 33.4329C32.4638 32.179 32.3007 30.3085 31.0453 29.2562ZM23.4759 22.9037C22.222 21.8513 20.3516 22.0144 19.2992 23.2697C18.2469 24.5251 18.4099 26.3941 19.6653 27.4465C20.9207 28.4988 22.7897 28.3358 23.842 27.0804C24.8944 25.825 24.7313 23.956 23.4759 22.9037ZM15.9066 16.5526C14.6526 15.5003 12.7822 15.6633 11.7298 16.9187C10.6775 18.1741 10.8405 20.0431 12.0959 21.0954C13.3513 22.1477 15.2203 21.9847 16.2726 20.7293C17.325 19.4739 17.1619 17.6049 15.9066 16.5526Z" fill="white"/>
<path d="M59.4292 12.0074H61.9736V32.0606H59.0503L52.1854 20.007C51.8127 19.3366 51.0381 17.8353 49.8638 15.5033H49.8367C49.8742 16.3612 49.9075 17.2961 49.9346 18.308C49.9616 19.3199 49.9762 20.0778 49.9762 20.5796V32.0606H47.4318V12.0074H50.2844L57.1638 23.9215C57.5095 24.5191 58.1341 25.6872 59.0378 27.432L59.5416 28.396H59.5687C59.5312 27.6319 59.4979 26.7511 59.4709 25.7538C59.4438 24.7564 59.4292 23.9548 59.4292 23.3489V12.0074ZM74.4249 25.7829C74.4249 28.7667 73.1943 30.2575 70.7332 30.2575C70.1835 30.2575 69.7026 30.2075 69.2924 30.1097C68.8822 30.0118 68.4949 29.7848 68.1326 29.4309C67.8619 29.1706 67.6662 28.8729 67.5455 28.5439C67.4247 28.2128 67.3518 27.8817 67.3289 27.5507C67.306 27.2196 67.2935 26.7553 67.2935 26.1598V17.7416H64.6367V26.2993C64.6367 26.9698 64.6575 27.5528 64.6992 28.0483C64.7408 28.5439 64.847 29.0332 65.0136 29.5246C65.1801 30.016 65.4383 30.4407 65.7819 30.8051C66.2941 31.3548 66.8958 31.7608 67.585 32.0211C68.2742 32.2813 69.0863 32.4125 70.0191 32.4125C71.0456 32.4125 71.9388 32.1981 72.703 31.7691C73.4671 31.3402 74.0397 30.726 74.4228 29.9223V32.0627H76.9964V17.7416H74.4228V25.7829H74.4249ZM84.7212 13.7564H82.1768V17.7416H79.1701V19.8946H82.1768V28.5376C82.1768 29.8327 82.5266 30.7676 83.2262 31.3423C83.9258 31.917 85.0522 32.2022 86.6097 32.2022C87.0011 32.2022 87.3905 32.1814 87.7778 32.1398C88.1651 32.0981 88.4836 32.044 88.7356 31.9794L88.6793 29.6308C87.961 29.7994 87.3405 29.8827 86.82 29.8827C86.2994 29.8827 85.8622 29.8431 85.5686 29.764C85.275 29.6849 85.0606 29.5433 84.9252 29.3372C84.7899 29.131 84.7233 28.8375 84.7233 28.4564V19.8988H88.7918V17.7458H84.7233V13.7564H84.7212ZM96.1814 18.4121C95.2715 18.9535 94.6822 19.6239 94.4115 20.4255V17.7416H91.838V32.0606H94.4115V25.5018C94.4115 24.0006 94.6343 22.8304 95.082 21.9913C95.5296 21.1522 96.1356 20.5775 96.8997 20.2652C97.6639 19.9529 98.5925 19.7967 99.6815 19.7967C100.119 19.7967 100.419 19.8113 100.577 19.8384L100.633 17.3918C100.017 17.3918 99.6252 17.4002 99.4587 17.4189C98.1802 17.5397 97.0892 17.8707 96.1793 18.4121H96.1814ZM121.565 22.4265C121.779 23.2739 121.886 24.1568 121.886 25.0688C121.886 25.3394 121.881 25.5393 121.871 25.6705H111.006C111.033 27.2467 111.383 28.4189 112.056 29.1873C112.726 29.9556 113.734 30.3408 115.077 30.3408C116.289 30.3408 117.23 30.0784 117.902 29.5516C118.575 29.0248 118.998 28.2211 119.175 27.1384L121.663 27.3341C121.346 29.0019 120.63 30.2658 119.516 31.1237C118.402 31.9815 116.932 32.4104 115.104 32.4104C112.903 32.4104 111.19 31.7108 109.957 30.3137C108.791 29.0082 108.208 27.1946 108.208 24.873C108.208 23.8007 108.36 22.8096 108.662 21.9018C108.964 20.9919 109.416 20.2069 110.011 19.5448C110.636 18.8369 111.377 18.2997 112.235 17.9374C113.093 17.573 114.038 17.3918 115.073 17.3918C116.228 17.3918 117.305 17.6375 118.302 18.1268C119.3 18.6161 120.087 19.3178 120.665 20.2319C121.049 20.8482 121.346 21.5791 121.561 22.4265H121.565ZM119.229 23.5863C119.22 23.1761 119.145 22.7305 119.006 22.2516C118.866 21.7727 118.685 21.3688 118.46 21.0419C118.096 20.5005 117.642 20.107 117.097 19.8592C116.551 19.6114 115.887 19.4886 115.104 19.4886C114.321 19.4886 113.636 19.626 113.049 19.9008C112.462 20.1757 112.022 20.5567 111.735 21.0398C111.491 21.4312 111.319 21.8518 111.21 22.2974C111.104 22.7451 111.044 23.174 111.035 23.5842H119.231L119.229 23.5863ZM136.117 20.2944C135.955 19.7946 135.705 19.3636 135.37 19.0013C134.847 18.4517 134.241 18.0456 133.552 17.7854C132.863 17.5251 132.047 17.3939 131.105 17.3939C128.915 17.3939 127.441 18.2414 126.687 19.9383V17.7437H124.113V32.0627H126.687V24.1609C126.687 22.3619 127.074 21.1418 127.847 20.5047C128.621 19.8654 129.477 19.5469 130.42 19.5469C130.951 19.5469 131.418 19.5968 131.82 19.6947C132.219 19.7926 132.602 20.0195 132.967 20.3735C133.237 20.6338 133.435 20.9336 133.56 21.2688C133.685 21.604 133.76 21.9414 133.783 22.2828C133.806 22.6222 133.818 23.0969 133.818 23.7029V32.0648H136.49V23.5634C136.49 22.8825 136.469 22.2932 136.427 21.7935C136.386 21.2938 136.282 20.7962 136.119 20.2964L136.117 20.2944ZM148.015 19.8946V17.7416H143.946V13.7564H141.402V17.7416H138.395V19.8946H141.402V28.5376C141.402 29.8327 141.751 30.7676 142.451 31.3423C143.151 31.917 144.277 32.2022 145.835 32.2022C146.226 32.2022 146.615 32.1814 147.003 32.1398C147.39 32.0981 147.708 32.044 147.96 31.9794L147.904 29.6308C147.186 29.7994 146.565 29.8827 146.045 29.8827C145.524 29.8827 145.087 29.8431 144.793 29.764C144.5 29.6849 144.285 29.5433 144.15 29.3372C144.015 29.131 143.948 28.8375 143.948 28.4564V19.8988H148.017L148.015 19.8946ZM103.196 32.0815H105.77V17.7625H103.196V32.0815ZM104.483 11.5889C103.444 11.5889 102.603 12.4301 102.603 13.4691C102.603 14.5081 103.444 15.3492 104.483 15.3492C105.522 15.3492 106.363 14.5081 106.363 13.4691C106.363 12.4301 105.522 11.5889 104.483 11.5889Z" fill="white"/>
</svg>
